<svg width="46" height="46" viewBox="0 0 46 46" fill="none" xmlns="http://www.w3.org/2000/svg">
<g id="Instagram - Negative" clip-path="url(#clip0_1_8461)">
<path id="Vector" d="M23.2705 4.71144C29.3184 4.71144 30.0346 4.73796 32.4131 4.84406C34.6236 4.94133 35.8172 5.31269 36.613 5.62215C37.6652 6.02888 38.4256 6.52403 39.2125 7.31096C40.0083 8.10673 40.4946 8.85829 40.9013 9.91048C41.2108 10.7063 41.5821 11.9088 41.6794 14.1104C41.7855 16.4977 41.812 17.2139 41.812 23.2529C41.812 29.3008 41.7855 30.017 41.6794 32.3955C41.5821 34.6059 41.2108 35.7996 40.9013 36.5954C40.4946 37.6476 39.9994 38.408 39.2125 39.1949C38.4167 39.9907 37.6652 40.477 36.613 40.8837C35.8172 41.1932 34.6147 41.5645 32.4131 41.6618C30.0258 41.7679 29.3096 41.7944 23.2705 41.7944C17.2227 41.7944 16.5065 41.7679 14.128 41.6618C11.9175 41.5645 10.7239 41.1932 9.9281 40.8837C8.87592 40.477 8.11551 39.9818 7.32858 39.1949C6.53281 38.3991 6.0465 37.6476 5.63978 36.5954C5.33031 35.7996 4.95895 34.5971 4.86169 32.3955C4.75558 30.0082 4.72906 29.292 4.72906 23.2529C4.72906 17.2051 4.75558 16.4889 4.86169 14.1104C4.95895 11.8999 5.33031 10.7063 5.63978 9.91048C6.0465 8.85829 6.54165 8.09789 7.32858 7.31096C8.12435 6.51519 8.87592 6.02888 9.9281 5.62215C10.7239 5.31269 11.9264 4.94133 14.128 4.84406C16.5065 4.73796 17.2227 4.71144 23.2705 4.71144ZM23.2705 0.635315C17.1254 0.635315 16.3562 0.661841 13.9423 0.767944C11.5373 0.874047 9.88389 1.26309 8.4515 1.82013C6.95722 2.4037 5.69283 3.17294 4.43728 4.43734C3.17288 5.69289 2.40364 6.95728 1.82007 8.44272C1.26303 9.88396 0.873986 11.5286 0.767883 13.9335C0.66178 16.3562 0.635254 17.1255 0.635254 23.2706C0.635254 29.4157 0.66178 30.185 0.767883 32.5988C0.873986 35.0038 1.26303 36.6573 1.82007 38.0897C2.40364 39.5839 3.17288 40.8483 4.43728 42.1039C5.69283 43.3594 6.95722 44.1375 8.44266 44.7122C9.88389 45.2693 11.5285 45.6583 13.9335 45.7644C16.3473 45.8705 17.1166 45.8971 23.2617 45.8971C29.4068 45.8971 30.1761 45.8705 32.5899 45.7644C34.9949 45.6583 36.6484 45.2693 38.0808 44.7122C39.5662 44.1375 40.8306 43.3594 42.0861 42.1039C43.3417 40.8483 44.1198 39.5839 44.6945 38.0985C45.2515 36.6573 45.6406 35.0127 45.7467 32.6077C45.8528 30.1938 45.8793 29.4246 45.8793 23.2795C45.8793 17.1343 45.8528 16.3651 45.7467 13.9512C45.6406 11.5462 45.2515 9.8928 44.6945 8.46041C44.1375 6.95728 43.3682 5.69289 42.1038 4.43734C40.8483 3.18179 39.5839 2.4037 38.0984 1.82897C36.6572 1.27193 35.0126 0.882888 32.6076 0.776786C30.1849 0.661841 29.4157 0.635315 23.2705 0.635315Z" fill="white"/>
<path id="Vector_2" d="M23.2707 11.6435C16.8514 11.6435 11.6436 16.8514 11.6436 23.2706C11.6436 29.6898 16.8514 34.8977 23.2707 34.8977C29.6899 34.8977 34.8978 29.6898 34.8978 23.2706C34.8978 16.8514 29.6899 11.6435 23.2707 11.6435ZM23.2707 30.8128C19.1061 30.8128 15.7285 27.4351 15.7285 23.2706C15.7285 19.1061 19.1061 15.7285 23.2707 15.7285C27.4352 15.7285 30.8128 19.1061 30.8128 23.2706C30.8128 27.4351 27.4352 30.8128 23.2707 30.8128Z" fill="white"/>
<path id="Vector_3" d="M38.072 11.1836C38.072 12.6868 36.8518 13.8981 35.3575 13.8981C33.8544 13.8981 32.6431 12.6779 32.6431 11.1836C32.6431 9.68052 33.8633 8.46918 35.3575 8.46918C36.8518 8.46918 38.072 9.68936 38.072 11.1836Z" fill="white"/>
</g>
<defs>
<clipPath id="clip0_1_8461">
<rect width="45.2706" height="45.2706" fill="white" transform="translate(0.635254 0.635315)"/>
</clipPath>
</defs>
</svg>
