<svg width="46" height="46" viewBox="0 0 46 46" fill="none" xmlns="http://www.w3.org/2000/svg">
<g id="TikTok - Negative" clip-path="url(#clip0_1_8463)">
<path id="Vector" d="M32.8386 0.635376H25.2092V31.4718C25.2092 35.146 22.2749 38.1641 18.6232 38.1641C14.9715 38.1641 12.0371 35.146 12.0371 31.4718C12.0371 27.8634 14.9063 24.9108 18.4276 24.7797V17.0378C10.6677 17.1689 4.40771 23.5331 4.40771 31.4718C4.40771 39.4763 10.7981 45.906 18.6884 45.906C26.5786 45.906 32.969 39.4106 32.969 31.4718V15.6599C35.8382 17.7595 39.3594 19.0061 43.0763 19.0717V11.3297C37.338 11.1329 32.8386 6.40901 32.8386 0.635376Z" fill="white"/>
</g>
<defs>
<clipPath id="clip0_1_8463">
<rect width="45.2706" height="45.2706" fill="white" transform="translate(0.635254 0.635376)"/>
</clipPath>
</defs>
</svg>
