<svg width="46" height="46" viewBox="0 0 46 46" fill="none" xmlns="http://www.w3.org/2000/svg">
<g id="Twitter - Original" clip-path="url(#clip0_1_8459)">
<path id="Vector" d="M14.8719 41.6631C31.9553 41.6631 41.2991 27.5097 41.2991 15.236C41.2991 14.834 41.2991 14.4338 41.2719 14.0354C43.0897 12.7206 44.6588 11.0926 45.9058 9.22766C44.2108 9.97915 42.4125 10.4718 40.5712 10.689C42.5102 9.52834 43.9614 7.70261 44.6546 5.55168C42.8314 6.63367 40.8367 7.39613 38.7567 7.80616C37.3563 6.31709 35.5042 5.33107 33.487 5.00067C31.4697 4.67028 29.3998 5.01393 27.5976 5.97846C25.7954 6.94298 24.3612 8.4746 23.5172 10.3363C22.6731 12.198 22.4661 14.286 22.9283 16.2772C19.2356 16.092 15.6231 15.1323 12.3254 13.4605C9.02758 11.7886 6.11821 9.44205 3.78609 6.57299C2.59835 8.6177 2.23457 11.0382 2.76882 13.3417C3.30306 15.6452 4.69516 17.6585 6.66167 18.9717C5.1835 18.9284 3.73751 18.5296 2.44608 17.8091V17.9269C2.44666 20.0713 3.18899 22.1495 4.54714 23.8089C5.9053 25.4684 7.79567 26.6071 9.89762 27.0317C8.53022 27.4047 7.09551 27.4592 5.70375 27.191C6.2975 29.0364 7.45306 30.6501 9.00888 31.8066C10.5647 32.9631 12.443 33.6045 14.3812 33.6412C12.4555 35.1549 10.2502 36.274 7.89151 36.9346C5.53284 37.5952 3.06707 37.7843 0.635254 37.491C4.88283 40.2167 9.82504 41.6625 14.8719 41.6559" fill="white"/>
</g>
<defs>
<clipPath id="clip0_1_8459">
<rect width="45.2706" height="45.2706" fill="white" transform="translate(0.635254 0.635376)"/>
</clipPath>
</defs>
</svg>
