<svg id="Layer_1" data-name="Layer 1" xmlns="http://www.w3.org/2000/svg" width="250.52" height="35.97" viewBox="0 0 250.52 35.97"><title>Squarespace logo - Brandlogos.net</title><path d="M268.07,385.13,282.2,371a5.09,5.09,0,0,1,7.18,0l1.1,1.1,2.2-2.2-1.1-1.1a8.21,8.21,0,0,0-11.6,0l-14.11,14.11Z" transform="translate(-258.74 -366.01)"/><path d="M286.93,375.67l-2.2-2.2L270.6,387.6a5.09,5.09,0,0,1-7.19-7.2h0l12.19-12.19-2.2-2.2L261.21,378.2a8.2,8.2,0,1,0,11.46,11.73l.13-.13ZM301,378.2a8.21,8.21,0,0,0-11.6,0l-14.13,14.13,2.2,2.2,14.13-14.13a5.09,5.09,0,0,1,8.68,3.6,5,5,0,0,1-1.5,3.6L286.6,399.79l2.21,2.2L301,389.8A8.21,8.21,0,0,0,301,378.2Z" transform="translate(-258.74 -366.01)"/><path d="M294.13,382.87,280,397a5.1,5.1,0,0,1-7.2,0l-1.1-1.1-2.2,2.2,1.1,1.1a8.21,8.21,0,0,0,11.6,0l14.13-14.13Z" transform="translate(-258.74 -366.01)"/><path d="M316.29,387.8a3.36,3.36,0,0,0,1.28,2.1,4.29,4.29,0,0,0,2.65.76,3.78,3.78,0,0,0,2.51-.75,2.45,2.45,0,0,0,.88-2,2,2,0,0,0-.24-1,2.14,2.14,0,0,0-.66-.7,4.2,4.2,0,0,0-1-.5l-1.39-.42-1.33-.36a12.23,12.23,0,0,1-2.14-.79,6.62,6.62,0,0,1-1.62-1.08,4.17,4.17,0,0,1-1-1.43,4.68,4.68,0,0,1-.35-1.88,4.74,4.74,0,0,1,.45-2.06,4.51,4.51,0,0,1,1.27-1.61,6,6,0,0,1,2-1.06,8.28,8.28,0,0,1,2.64-.39,6.77,6.77,0,0,1,4.38,1.3,5.15,5.15,0,0,1,1.89,3.51l-3,.25a3,3,0,0,0-1.09-1.74,3.72,3.72,0,0,0-2.29-.62,3.29,3.29,0,0,0-2.14.63,2,2,0,0,0-.77,1.63,1.85,1.85,0,0,0,.23,1,2.05,2.05,0,0,0,.65.67,4.61,4.61,0,0,0,1,.5c.41.15.87.31,1.38.48l1.27.4q1.19.38,2.15.78a6.42,6.42,0,0,1,1.63,1,3.89,3.89,0,0,1,1,1.37,4.76,4.76,0,0,1,.36,2,5.17,5.17,0,0,1-.5,2.28,5,5,0,0,1-1.39,1.75,6.58,6.58,0,0,1-2.13,1.12,8.79,8.79,0,0,1-2.72.4,7.8,7.8,0,0,1-4.6-1.29,5.62,5.62,0,0,1-2.29-3.93Zm23.28-13.08a9.62,9.62,0,0,1,3.68.68,8.06,8.06,0,0,1,2.83,1.91,8.65,8.65,0,0,1,1.82,2.95,10.61,10.61,0,0,1,.65,3.76,10.18,10.18,0,0,1-.69,3.82,8.63,8.63,0,0,1-1.95,2.95l2.39,2.79v.87h-3l-1.67-2a9.59,9.59,0,0,1-1.89.67,10,10,0,0,1-2.14.22,9.64,9.64,0,0,1-3.72-.72,8,8,0,0,1-2.81-1.92,8.52,8.52,0,0,1-1.79-2.93,11.25,11.25,0,0,1,0-7.46,8.46,8.46,0,0,1,1.8-2.94,8.16,8.16,0,0,1,2.82-1.92A9.33,9.33,0,0,1,339.57,374.72Zm0,2.69a5.59,5.59,0,0,0-2.4.5,5.09,5.09,0,0,0-1.79,1.38,6.18,6.18,0,0,0-1.12,2.08,8.58,8.58,0,0,0-.38,2.62,8.42,8.42,0,0,0,.4,2.64,6.46,6.46,0,0,0,1.13,2.11,5.17,5.17,0,0,0,1.79,1.4,5.51,5.51,0,0,0,2.4.5,5.73,5.73,0,0,0,2.4-.5,5.06,5.06,0,0,0,1.79-1.36,6.09,6.09,0,0,0,1.13-2.09,8.72,8.72,0,0,0,.4-2.7,8.52,8.52,0,0,0-.4-2.66,6.19,6.19,0,0,0-1.13-2.08,5.18,5.18,0,0,0-1.8-1.36A5.69,5.69,0,0,0,339.55,377.4Zm20.82,13.36a3.82,3.82,0,0,0,3-1.18,5.25,5.25,0,0,0,1.07-3.62v-10.9h3.12v11a9.81,9.81,0,0,1-.5,3.32,5.74,5.74,0,0,1-1.42,2.27,5.51,5.51,0,0,1-2.26,1.29,11.28,11.28,0,0,1-6,0,5.48,5.48,0,0,1-2.25-1.29,5.79,5.79,0,0,1-1.42-2.27,9.82,9.82,0,0,1-.5-3.32v-11h3.13V386a5.25,5.25,0,0,0,1.07,3.62A3.81,3.81,0,0,0,360.36,390.76Zm10.32,1.31,6.34-17h4.7l6.27,17v.85h-3.08l-1.79-5.1h-7.73l-1.81,5.1h-2.91Zm5.64-6.92h5.9l-1-2.84c-.38-1.11-.69-2-.92-2.71s-.44-1.31-.62-1.84h-.77l-.3.85-.34.94c-.13.35-.26.75-.41,1.2s-.33,1-.55,1.56Zm29.18,7.77h-3l-5.45-7h-2v7H392V375.06h5.8a17.83,17.83,0,0,1,2.6.19,5.36,5.36,0,0,1,2.23.86,4.69,4.69,0,0,1,2.11,4.2,5.71,5.71,0,0,1-.37,2.12,4.74,4.74,0,0,1-1,1.54,5,5,0,0,1-1.38,1,7.15,7.15,0,0,1-1.63.6l5.14,6.47ZM395,383.22h2.71a5.24,5.24,0,0,0,2.82-.65,2.34,2.34,0,0,0,1-2.13,2.2,2.2,0,0,0-1-2.09,5.71,5.71,0,0,0-2.81-.59H395Zm14.45-8.16h11.57v2.74h-8.52v4.68h7.91v2.69h-7.89v5h8.68v2.75H409.49Zm18.66,12.73a3.36,3.36,0,0,0,1.28,2.1,4.3,4.3,0,0,0,2.65.76,3.78,3.78,0,0,0,2.51-.75,2.45,2.45,0,0,0,.88-2,2,2,0,0,0-.24-1,2.14,2.14,0,0,0-.66-.7,4.2,4.2,0,0,0-1-.5l-1.39-.42-1.34-.37a12.23,12.23,0,0,1-2.14-.79,6.62,6.62,0,0,1-1.62-1.08,4.17,4.17,0,0,1-1-1.43,5.07,5.07,0,0,1,.1-3.94,4.57,4.57,0,0,1,1.27-1.61,6,6,0,0,1,2-1.06,8.28,8.28,0,0,1,2.64-.39,6.79,6.79,0,0,1,4.38,1.3,5.14,5.14,0,0,1,1.89,3.51l-3,.25a3,3,0,0,0-1.08-1.74,3.71,3.71,0,0,0-2.29-.62,3.29,3.29,0,0,0-2.14.63,2,2,0,0,0-.77,1.63,1.85,1.85,0,0,0,.22,1,2.05,2.05,0,0,0,.65.67,4.61,4.61,0,0,0,1,.5c.41.15.87.31,1.38.48l1.27.4q1.19.38,2.15.78a6.42,6.42,0,0,1,1.63,1,3.89,3.89,0,0,1,1,1.37,4.76,4.76,0,0,1,.36,2,5.17,5.17,0,0,1-.5,2.28,5,5,0,0,1-1.39,1.75,6.61,6.61,0,0,1-2.13,1.11,8.83,8.83,0,0,1-2.73.4,7.81,7.81,0,0,1-4.6-1.29,5.62,5.62,0,0,1-2.28-3.91Zm15-12.73h6.52a9.38,9.38,0,0,1,3,.43,5.12,5.12,0,0,1,2,1.17,4.31,4.31,0,0,1,1.09,1.75,6.78,6.78,0,0,1,.34,2.18,5.85,5.85,0,0,1-.46,2.43,4.37,4.37,0,0,1-1.33,1.7,6,6,0,0,1-2.11,1,10.73,10.73,0,0,1-2.81.34h-3.16v6.87H443.2Zm3.11,8.31h3a7.78,7.78,0,0,0,1.5-.14,3.56,3.56,0,0,0,1.19-.46,2.24,2.24,0,0,0,.8-.86,2.85,2.85,0,0,0,.29-1.33,3,3,0,0,0-.29-1.37,2.23,2.23,0,0,0-.79-.88,3.4,3.4,0,0,0-1.18-.46,7.66,7.66,0,0,0-1.5-.14h-3Zm10.75,8.7,6.34-17h4.7l6.26,17v.85H471.3l-1.79-5.1h-7.76l-1.79,5.1H457Zm5.65-6.92h5.89l-1-2.84c-.38-1.11-.69-2-.92-2.71l-.62-1.84h-.79l-.3.85-.34.94c-.13.35-.26.75-.41,1.2s-.33,1-.55,1.56Zm30.62,3a8.93,8.93,0,0,1-1.1,2,7.46,7.46,0,0,1-1.66,1.61,7.83,7.83,0,0,1-2.25,1.09,9.55,9.55,0,0,1-2.85.4,9.08,9.08,0,0,1-3.63-.7,8.11,8.11,0,0,1-2.78-1.92,8.56,8.56,0,0,1-1.78-2.94,11.2,11.2,0,0,1,0-7.39,8.52,8.52,0,0,1,1.79-2.95,8.28,8.28,0,0,1,2.8-2,9.05,9.05,0,0,1,3.64-.71,8.43,8.43,0,0,1,4.91,1.37,7.39,7.39,0,0,1,2.8,3.63l-3.16.62a5.22,5.22,0,0,0-1.8-2.15,4.88,4.88,0,0,0-2.8-.78,5.23,5.23,0,0,0-2.35.5,5.09,5.09,0,0,0-1.74,1.4,6.23,6.23,0,0,0-1.08,2.11,8.73,8.73,0,0,0-.38,2.6,8.57,8.57,0,0,0,.39,2.62,6.19,6.19,0,0,0,1.12,2.08,5.2,5.2,0,0,0,1.79,1.36,5.51,5.51,0,0,0,2.39.5,4.66,4.66,0,0,0,2.87-.85,5.83,5.83,0,0,0,1.75-2.06Zm4.2-13.14h11.57v2.74h-8.52v4.68h7.92v2.69h-7.91v5h8.68v2.75H497.52Z" transform="translate(-258.74 -366.01)"/></svg>